<svg xmlns="http://www.w3.org/2000/svg" aria-hidden="true" style="position:absolute;width:0;height:0;overflow:hidden"><defs><symbol id="icon-arrow-right" viewBox="0 0 32 32"><path fill="none" stroke="#fff" stroke-linecap="round" stroke-linejoin="round" stroke-width="2.667" d="M6.421 15.411H24.4M15.41 24.4l8.989-8.989-8.989-8.989" style="stroke:var(--color1, #fff)"/></symbol><symbol id="icon-arrow-left" viewBox="0 0 32 32"><path fill="none" stroke="#fff" stroke-linecap="round" stroke-linejoin="round" stroke-width="2.667" d="M24.4 15.41H6.421m8.99-8.989L6.422 15.41l8.989 8.989" style="stroke:var(--color1, #fff)"/></symbol><symbol id="icon-close" viewBox="0 0 32 32"><path fill="#fff" d="M26.08 4.442a1.068 1.068 0 0 1 1.653.784c.024.246-.038.492-.175.697l-.137.166L17.507 16l9.914 9.914.137.166a1.064 1.064 0 0 1-.135 1.344 1.064 1.064 0 0 1-1.344.135l-.166-.137-9.914-9.914-9.911 9.914a1.06 1.06 0 0 1-1.171.247 1.06 1.06 0 0 1-.583-.583 1.06 1.06 0 0 1 .247-1.171l9.912-9.914L4.581 6.09l-.139-.166a1.066 1.066 0 0 1 1.48-1.48l.166.139 9.911 9.911 9.914-9.911.166-.139z" style="fill:var(--color1, #fff)"/></symbol><symbol id="icon-cross" viewBox="0 0 32 32"><path fill="none" stroke="#fff" stroke-linecap="round" stroke-width="2.667" d="M26.667 26.667 5.334 5.334m21.333-.001L5.334 26.666" style="stroke:var(--color1, #fff)"/></symbol><symbol id="icon-menu" viewBox="0 0 32 32"><path fill="none" stroke="#fff" stroke-linecap="round" stroke-linejoin="round" stroke-width="2.133" d="M5.333 6.667h21.333M5.333 16h21.333M5.333 25.333h21.333" style="stroke:var(--color1, #fff)"/></symbol></defs></svg>